<svg width="250" height="250" viewBox="0 0 250 250" fill="none" xmlns="http://www.w3.org/2000/svg">
<rect width="250" height="250" fill="#171717"/>
<g clip-path="url(#clip0_1_2)">
<rect x="68" y="68" width="113" height="113" fill="#877491"/>
<rect width="8" height="8" transform="translate(69 172)" fill="#CBAC48"/>
<rect width="8" height="25.7091" transform="translate(63.3058 166.963) rotate(-45)" fill="#877490"/>
<rect width="8" height="45" transform="translate(69 102)" fill="#B298BE"/>
</g>
<rect x="68.5" y="68.5" width="112" height="112" stroke="#B298BE"/>
<rect x="77" y="100" width="95" height="49" rx="3" fill="#8E8E8E"/>
<rect x="83" y="83" width="83" height="83" rx="3" fill="#8E8E8E"/>
<rect x="88.5" y="88.5" width="73" height="73" rx="1.5" fill="#8E8E8E"/>
<rect x="88.5" y="88.5" width="73" height="73" rx="1.5" stroke="#393939" stroke-width="3"/>
<path d="M93 128V109.12H93.96V128H93ZM96.84 128V109.12H98.76V128H96.84ZM99.72 128V109.12H102.6V128H99.72ZM96.104 130.784H97.064V130.88C97.0213 130.923 96.9893 130.976 96.968 131.04C96.968 131.083 96.968 131.179 96.968 131.328V137.504H100.52V138.208H96.104V130.784ZM103.562 128V109.12H106.443V128H103.562ZM107.403 128V109.12H109.323V128H107.403ZM110.283 128V109.12H111.243V128H110.283ZM108.491 135.296L106.187 130.784H107.147L108.971 134.4L110.603 130.784H111.499L109.387 135.296V138.208H108.491V135.296ZM114.125 128V109.12H116.045V128H114.125ZM117.005 128V109.12H119.885V128H117.005ZM122.765 128V109.12H123.725V128H122.765ZM118.893 131.52H116.813V130.784H121.933V131.52H119.757V138.208H118.893V131.52ZM124.688 128V109.12H125.648V128H124.688ZM126.608 128V109.12H128.528V128H126.608ZM130.448 128V109.12H131.408V128H130.448ZM130.224 138.336C129.413 138.336 128.773 138.091 128.304 137.6C127.813 137.109 127.568 136.416 127.568 135.52C127.568 134.923 127.685 134.4 127.92 133.952C128.133 133.525 128.432 133.205 128.816 132.992C129.178 132.757 129.594 132.64 130.064 132.64C130.725 132.64 131.258 132.853 131.664 133.28C132.069 133.728 132.272 134.379 132.272 135.232C132.272 135.317 132.272 135.445 132.272 135.616H128.4C128.421 136.277 128.602 136.779 128.944 137.12C129.285 137.461 129.722 137.632 130.256 137.632C130.832 137.632 131.301 137.429 131.664 137.024L132.144 137.504C131.674 138.059 131.034 138.336 130.224 138.336ZM131.408 134.944C131.408 134.432 131.28 134.027 131.024 133.728C130.768 133.429 130.426 133.28 130 133.28C129.616 133.28 129.274 133.419 128.976 133.696C128.677 133.973 128.496 134.389 128.432 134.944H131.408ZM135.25 128V109.12H136.21V128H135.25ZM140.05 128V109.12H141.01V128H140.05ZM141.97 128V109.12H143.89V128H141.97ZM140.946 138.336C140.413 138.336 139.943 138.219 139.538 137.984C139.133 137.728 138.813 137.387 138.578 136.96C138.343 136.533 138.226 136.043 138.226 135.488C138.226 134.955 138.343 134.475 138.578 134.048C138.813 133.621 139.133 133.28 139.538 133.024C139.943 132.789 140.413 132.672 140.946 132.672C141.373 132.672 141.767 132.757 142.13 132.928C142.471 133.099 142.759 133.344 142.994 133.664L142.45 134.208L142.386 134.272L142.322 134.208C142.322 134.144 142.301 134.08 142.258 134.016C142.237 133.973 142.183 133.909 142.098 133.824C141.927 133.675 141.746 133.568 141.554 133.504C141.341 133.419 141.106 133.376 140.85 133.376C140.53 133.376 140.242 133.461 139.986 133.632C139.709 133.803 139.495 134.048 139.346 134.368C139.175 134.667 139.09 135.019 139.09 135.424C139.09 135.829 139.175 136.203 139.346 136.544C139.517 136.864 139.741 137.109 140.018 137.28C140.317 137.472 140.637 137.568 140.978 137.568C141.533 137.568 142.013 137.344 142.418 136.896L142.898 137.472C142.365 138.048 141.714 138.336 140.946 138.336ZM145.812 128V109.12H146.773V128H145.812ZM148.693 128V109.12H150.613V128H148.693ZM154.453 128V109.12H155.413V128H154.453ZM148.981 130.304H149.941V130.368C149.877 130.432 149.845 130.485 149.845 130.528C149.823 130.592 149.812 130.688 149.812 130.816V133.728C150.026 133.408 150.293 133.141 150.613 132.928C150.933 132.736 151.263 132.64 151.605 132.64C152.117 132.64 152.522 132.821 152.821 133.184C153.119 133.547 153.269 134.123 153.269 134.912V138.208H152.437V134.944C152.437 134.389 152.341 133.995 152.149 133.76C151.957 133.504 151.711 133.376 151.413 133.376C151.157 133.376 150.911 133.451 150.677 133.6C150.421 133.728 150.218 133.931 150.069 134.208C149.898 134.464 149.812 134.752 149.812 135.072V138.208H148.981V130.304Z" fill="white"/>
<rect x="63.5" y="80.5" width="9" height="9" rx="4.5" fill="#171717"/>
<rect x="63.5" y="80.5" width="9" height="9" rx="4.5" stroke="#B298BE"/>
<rect width="14" height="29" transform="translate(54 68)" fill="#171717"/>
<defs>
<clipPath id="clip0_1_2">
<rect x="68" y="68" width="113" height="113" fill="white"/>
</clipPath>
</defs>
</svg>
